<svg version="1.1" id="Layer_1" xmlns="http://www.w3.org/2000/svg" xmlns:xlink="http://www.w3.org/1999/xlink" x="0px" y="0px"
	 width="100%" viewBox="0 0 500 499" enable-background="new 0 0 500 499" xml:space="preserve">
<path fill="#000000" opacity="1.000000" stroke="none" 
	d="
M327.000000,500.000000 
	C218.000031,500.000000 109.500053,500.000000 1.000058,500.000000 
	C1.000039,333.666718 1.000039,167.333466 1.000019,1.000148 
	C167.666565,1.000098 334.333130,1.000098 500.999756,1.000049 
	C500.999847,167.333191 500.999847,333.666382 500.999939,499.999786 
	C443.166656,500.000000 385.333344,500.000000 327.000000,500.000000 
M363.726044,269.024200 
	C364.188477,268.670319 364.650879,268.316437 365.469574,267.900726 
	C365.469574,267.900726 365.665924,267.597107 366.237671,267.209167 
	C372.130219,260.928925 379.279846,255.408844 383.638641,248.201080 
	C391.349670,235.449936 393.983917,221.225281 392.160095,205.997604 
	C389.638031,184.939941 381.241669,167.799332 362.349060,155.849854 
	C356.268097,153.543213 350.187164,151.236572 343.779572,148.288742 
	C336.856323,147.586502 329.933075,146.884262 322.528351,146.025604 
	C322.364594,145.984940 322.200836,145.944260 321.627258,145.133881 
	C304.974487,145.088791 288.321716,145.020676 271.668915,145.004288 
	C249.681305,144.982635 227.693604,144.982986 205.706192,145.052429 
	C204.480957,145.056290 203.257965,145.775177 202.032318,147.075653 
	C202.032318,151.612976 202.032318,156.150314 202.032318,160.993256 
	C199.574783,160.993256 197.778183,160.881866 196.000443,161.017380 
	C192.720245,161.267456 189.451096,161.662415 186.043076,162.916061 
	C186.029465,167.231934 186.015854,171.547806 185.498489,176.018478 
	C185.331818,176.306992 185.165146,176.595505 184.143112,176.995102 
	C182.422729,177.062668 180.702362,177.130234 178.098877,177.056595 
	C175.711792,177.038818 173.324692,177.021042 171.007370,176.071915 
	C170.678040,171.032883 170.348709,165.993866 169.573242,160.365662 
	C167.673798,160.577332 165.773788,160.784195 163.875015,161.001770 
	C160.982742,161.333191 158.091309,161.672043 155.056778,162.923035 
	C155.049347,167.224594 155.041916,171.526138 154.102142,175.988800 
	C144.102707,175.988800 134.103287,175.988800 123.530922,175.988800 
	C124.067505,181.742920 124.538261,186.791122 125.932602,191.956970 
	C130.583557,191.979034 135.234528,192.001099 139.993378,192.942871 
	C139.993378,197.783264 139.993378,202.623657 139.993378,208.119034 
	C145.006561,208.119034 149.932129,208.119034 154.987473,209.017807 
	C154.949310,212.677689 154.911133,216.337570 154.130585,220.354309 
	C153.829422,220.881149 153.532242,221.865723 153.226532,221.868378 
	C143.856155,221.949783 134.484940,221.934845 125.009705,221.934845 
	C125.009705,217.354034 125.116066,213.377380 124.918823,209.415848 
	C124.879974,208.635376 123.670425,207.913223 122.194679,207.358871 
	C117.909737,207.624908 113.624786,207.890945 109.437210,208.150925 
	C109.437210,212.809204 109.437210,217.818130 109.437210,223.401443 
	C114.267479,222.950409 118.632935,222.542770 123.121468,222.650162 
	C123.423302,222.822968 123.725128,222.995789 124.015739,224.079147 
	C124.076172,228.696167 124.136604,233.313187 124.328194,238.807343 
	C129.102524,238.807343 133.876862,238.807343 138.816360,238.807343 
	C138.816360,243.736969 138.816360,248.028244 138.816360,252.982635 
	C135.559189,252.982635 132.208191,252.866852 128.871292,253.033417 
	C127.296478,253.112015 125.748688,253.731995 124.039650,255.014435 
	C124.006355,259.670624 123.973061,264.326813 123.189499,269.346039 
	C118.583313,269.584747 113.977127,269.823456 109.438812,270.058655 
	C109.438812,274.732666 109.438812,279.777069 109.438812,284.980469 
	C113.348572,284.980469 116.848526,284.779938 120.315178,285.033905 
	C124.190163,285.317810 125.268173,283.567810 125.041161,280.020905 
	C124.829399,276.712341 125.012550,273.378479 125.946640,269.984528 
	C128.918533,269.980255 131.905533,269.785431 134.858566,270.019318 
	C138.651825,270.319794 140.373871,269.058746 140.060471,265.020874 
	C139.780228,261.409973 139.994812,257.760712 140.035263,254.057068 
	C140.035263,254.057068 139.992279,253.985046 140.929825,254.021133 
	C150.576096,254.040680 160.222351,254.060226 169.983063,254.994385 
	C169.663666,259.946259 169.344269,264.898132 168.375793,269.817535 
	C167.585907,269.613861 166.796021,269.410217 165.202148,269.097900 
	C162.072189,269.468109 158.942230,269.838287 155.142700,270.287659 
	C155.142700,274.775085 155.142700,279.640503 155.142700,284.996094 
	C149.489380,284.996094 144.445480,284.996094 139.960037,284.996094 
	C139.960037,289.947937 139.960037,294.399628 139.207321,299.233185 
	C135.539764,299.632355 131.872223,300.031494 128.018143,300.450958 
	C128.018143,304.348663 128.151978,307.992279 127.977982,311.621155 
	C127.824600,314.820221 129.038589,315.960938 132.291992,316.046722 
	C143.767654,316.349243 143.889496,316.454926 143.909897,304.881653 
	C143.916275,301.263092 144.955719,299.812012 148.732498,299.943939 
	C155.451981,300.178711 162.185730,300.005554 169.231888,300.801697 
	C169.602203,305.394775 169.972504,309.987885 170.376663,315.000916 
	C167.856689,315.000916 166.082367,314.884705 164.328903,315.026642 
	C161.276627,315.273651 158.237213,315.679932 155.065613,316.942078 
	C155.052353,318.261322 155.006363,319.581146 155.030914,320.899689 
	C155.270660,333.784607 152.870697,331.697876 166.369217,332.020386 
	C169.721603,332.100494 171.248734,331.093353 171.036926,327.535248 
	C170.811905,323.755066 170.983017,319.951355 171.522934,315.963684 
	C171.727097,315.650604 171.931259,315.337524 173.008224,315.005188 
	C177.170715,315.399994 181.333206,315.794800 186.189819,316.255463 
	C186.189819,320.919617 186.189819,325.458038 186.091171,330.458771 
	C186.091171,330.458771 186.193893,330.920166 186.312653,331.800629 
	C191.231522,331.933136 196.150391,332.065674 201.039459,333.102081 
	C201.371140,338.084351 201.702805,343.066589 201.095932,347.989471 
	C195.824417,347.989471 190.552902,347.989471 185.528534,347.989471 
	C185.528534,352.161560 185.527863,355.960358 185.528839,359.759155 
	C185.529327,361.655487 184.734116,364.651978 187.998199,363.831787 
	C192.628220,362.668396 198.590179,367.571594 201.930450,360.860779 
	C202.195312,360.328644 201.977386,359.554016 201.976349,358.892090 
	C201.970566,355.251587 201.962479,351.611053 202.884079,347.962219 
	C207.256485,347.668121 211.628891,347.374023 216.007812,347.519043 
	C216.007812,347.519043 216.171860,347.929993 216.291962,348.679535 
	C216.653534,353.746368 217.015121,358.813171 217.373993,363.841980 
	C232.105453,363.841980 246.554520,363.841980 261.844849,363.610565 
	C261.894379,361.790344 261.984436,359.970154 261.987305,358.149872 
	C262.028198,332.118042 262.057312,306.086182 263.016968,280.037445 
	C280.356934,279.973022 297.696869,279.908600 315.885101,279.962677 
	C317.596985,279.918945 319.308868,279.875244 321.866211,279.964447 
	C325.442352,279.637909 329.075104,279.602081 332.581909,278.919403 
	C338.417725,277.783325 344.172821,276.232452 350.733154,274.967377 
	C353.491302,273.921478 356.249481,272.875610 359.654449,271.803040 
	C360.775330,270.898651 361.896240,269.994263 363.054260,269.071350 
	C363.054260,269.071350 363.075531,269.035706 363.726044,269.024200 
M93.027679,240.013443 
	C93.065025,244.318237 93.102379,248.623032 93.311119,253.794037 
	C97.599762,253.903458 101.892113,254.143829 106.174248,254.022720 
	C107.145546,253.995239 108.862831,252.757645 108.905426,252.001999 
	C109.162827,247.435837 109.033516,242.847885 109.033516,237.382126 
	C103.399338,237.992172 98.266693,238.547928 93.027679,240.013443 
z"/>
<path fill="#0491E2" opacity="1.000000" stroke="none" 
	d="
M363.001678,156.173065 
	C381.241669,167.799332 389.638031,184.939941 392.160095,205.997604 
	C393.983917,221.225281 391.349670,235.449936 383.638641,248.201080 
	C379.279846,255.408844 372.130219,260.928925 365.609619,267.090820 
	C364.321014,263.444733 363.102173,259.919434 363.086823,256.388916 
	C362.941559,222.984131 363.001129,189.578476 363.001678,156.173065 
z"/>
<path fill="#097FE2" opacity="1.000000" stroke="none" 
	d="
M323.009827,146.182037 
	C329.933075,146.884262 336.856323,147.586502 343.657837,148.864899 
	C343.536102,191.049026 343.536102,232.656998 343.536102,274.575378 
	C345.661560,274.668274 347.811707,274.762268 349.961884,274.856262 
	C344.172821,276.232452 338.417725,277.783325 332.581909,278.919403 
	C329.075104,279.602081 325.442352,279.637909 321.384399,279.596313 
	C320.269775,278.813568 319.637024,278.398987 319.053589,277.597900 
	C319.735443,274.486694 320.840485,271.774475 320.913361,269.034821 
	C321.147400,260.236755 320.920593,251.427399 321.046051,242.624878 
	C321.086243,239.804092 321.669098,236.991058 322.360931,234.095703 
	C326.764862,231.116669 332.339081,229.066147 334.527435,225.132156 
	C338.581635,217.844177 337.815521,209.553696 334.913330,201.504532 
	C332.785004,195.601807 327.446777,193.846252 323.016541,190.429138 
	C323.227356,186.785660 323.601227,183.545502 323.582855,180.307571 
	C323.555237,175.441925 323.166687,170.579208 323.088440,165.712723 
	C322.983765,159.203751 323.028992,152.692383 323.009827,146.182037 
z"/>
<path fill="#0587E3" opacity="1.000000" stroke="none" 
	d="
M350.347534,274.911804 
	C347.811707,274.762268 345.661560,274.668274 343.536102,274.575378 
	C343.536102,232.656998 343.536102,191.049026 343.821167,149.185486 
	C350.187164,151.236572 356.268097,153.543213 362.675354,156.011459 
	C363.001129,189.578476 362.941559,222.984131 363.086823,256.388916 
	C363.102173,259.919434 364.321014,263.444733 365.323730,267.284790 
	C365.665924,267.597107 365.469574,267.900726 364.984741,267.964996 
	C364.025116,268.364746 363.550323,268.700226 363.075531,269.035706 
	C363.075531,269.035706 363.054260,269.071350 362.697937,269.088654 
	C361.230316,270.013885 360.118958,270.921783 359.007629,271.829712 
	C356.249481,272.875610 353.491302,273.921478 350.347534,274.911804 
z"/>
<path fill="#0F76E3" opacity="1.000000" stroke="none" 
	d="
M322.769104,146.103821 
	C323.028992,152.692383 322.983765,159.203751 323.088440,165.712723 
	C323.166687,170.579208 323.555237,175.441925 323.582855,180.307571 
	C323.601227,183.545502 323.227356,186.785660 322.580597,190.495575 
	C316.422028,190.253387 310.711884,189.540421 304.933777,188.425888 
	C304.259857,181.023697 303.296021,174.030594 303.149170,167.020370 
	C303.003479,160.067215 303.680634,153.096832 304.461670,146.073975 
	C310.629974,145.977142 316.333496,145.940369 322.037048,145.903595 
	C322.200836,145.944260 322.364594,145.984940 322.769104,146.103821 
z"/>
<path fill="#1671E2" opacity="1.000000" stroke="none" 
	d="
M319.004242,277.984375 
	C319.637024,278.398987 320.269775,278.813568 320.961670,279.529846 
	C319.308868,279.875244 317.596985,279.918945 315.191345,279.570618 
	C304.331360,279.072357 294.165100,278.966156 283.999573,278.433472 
	C283.999390,275.724976 283.998444,273.442902 284.457764,271.088562 
	C288.354797,271.003876 291.803436,271.145233 295.220856,270.881836 
	C296.197845,270.806549 297.084442,269.558441 297.991821,268.432007 
	C297.985504,264.061066 297.999878,260.106171 298.065979,255.765594 
	C297.075745,254.876694 296.033783,254.373489 294.675232,253.615936 
	C291.032410,253.114182 287.706207,252.866760 284.749481,252.646820 
	C284.479492,247.064758 284.238770,242.087296 284.463501,237.048584 
	C292.618866,237.021255 300.308807,237.055176 307.987793,237.487518 
	C307.680420,239.338440 307.098419,240.798126 307.134583,242.242325 
	C307.341766,250.514328 307.847961,258.780548 307.962463,267.052734 
	C308.114563,278.038727 308.000000,278.040314 319.004242,277.984375 
z"/>
<path fill="#3046E2" opacity="1.000000" stroke="none" 
	d="
M186.177353,161.997009 
	C189.451096,161.662415 192.720245,161.267456 196.000443,161.017380 
	C197.778183,160.881866 199.574783,160.993256 202.032318,160.993256 
	C202.032318,156.150314 202.032318,151.612976 202.483643,146.548767 
	C206.622879,146.056625 210.310776,146.091354 213.999435,146.582703 
	C213.666718,161.683426 213.333252,176.327530 212.543976,191.011810 
	C208.740814,191.019699 205.393478,190.987396 202.000778,190.496460 
	C201.624100,185.704681 201.292786,181.371506 201.133270,176.764084 
	C201.210876,176.295715 201.116684,176.101624 200.732758,175.653748 
	C197.038223,175.252426 195.460312,173.749481 195.937988,170.101837 
	C196.267822,167.583099 196.001343,164.986267 196.001343,161.997025 
	C192.742737,161.997025 189.460037,161.997025 186.177353,161.997009 
z"/>
<path fill="#3127E1" opacity="1.000000" stroke="none" 
	d="
M166.006134,269.206543 
	C166.796021,269.410217 167.585907,269.613861 168.929901,269.886810 
	C169.483994,269.956085 169.946259,270.045715 170.008499,270.507263 
	C169.977509,280.588409 169.884262,290.207977 169.573395,299.880188 
	C169.355774,299.932861 168.913513,300.003021 168.913513,300.003021 
	C162.185730,300.005554 155.451981,300.178711 148.732498,299.943939 
	C144.955719,299.812012 143.916275,301.263092 143.909897,304.881653 
	C143.889496,316.454926 143.767654,316.349243 132.291992,316.046722 
	C129.038589,315.960938 127.824600,314.820221 127.977982,311.621155 
	C128.151978,307.992279 128.018143,304.348663 128.018143,300.450958 
	C131.872223,300.031494 135.539764,299.632355 140.049103,299.087982 
	C145.537857,298.958435 150.192612,298.815674 154.829208,299.042999 
	C158.169525,299.206757 159.180237,297.854736 159.051010,294.677399 
	C158.855591,289.872131 159.016769,285.052948 158.996643,280.239807 
	C158.977188,275.588654 158.374985,270.592682 165.359283,270.476074 
	C165.581894,270.472382 165.790817,269.648224 166.006134,269.206543 
z"/>
<path fill="#311FE1" opacity="1.000000" stroke="none" 
	d="
M154.857697,208.119034 
	C149.932129,208.119034 145.006561,208.119034 139.993378,208.119034 
	C139.993378,202.623657 139.993378,197.783264 140.209900,192.668549 
	C140.912201,193.129379 141.397995,193.864548 141.883774,194.599716 
	C142.195450,194.498505 142.507111,194.397293 142.818771,194.296082 
	C141.569183,189.151764 140.319611,184.007446 139.081879,178.911957 
	C140.719666,178.149658 141.865585,177.616302 143.383759,177.015045 
	C144.508896,176.993683 145.261765,177.040237 146.258957,177.329346 
	C147.995270,177.411301 149.487259,177.250732 151.356583,177.019470 
	C152.752167,177.013290 153.770432,177.077759 154.826096,177.142792 
	C154.863495,177.143356 154.877747,177.069931 154.881210,177.533218 
	C154.938400,187.976715 154.992126,197.956940 155.000381,207.984238 
	C154.954910,208.031326 154.857697,208.119034 154.857697,208.119034 
z"/>
<path fill="#3412E0" opacity="1.000000" stroke="none" 
	d="
M124.197037,237.930206 
	C124.136604,233.313187 124.076172,228.696167 124.481415,223.549713 
	C132.284637,223.064697 139.622177,223.109116 146.692108,223.391357 
	C145.379013,224.538330 143.427933,225.448013 143.428497,226.356491 
	C143.434036,235.188477 143.766312,244.020264 143.623383,252.903229 
	C142.215408,252.936096 141.189484,252.917831 140.105438,252.441864 
	C140.047318,247.427765 140.047318,242.871368 140.047318,237.930206 
	C134.352844,237.930206 129.274933,237.930206 124.197037,237.930206 
z"/>
<path fill="#311FE1" opacity="1.000000" stroke="none" 
	d="
M165.604141,269.152222 
	C165.790817,269.648224 165.581894,270.472382 165.359283,270.476074 
	C158.374985,270.592682 158.977188,275.588654 158.996643,280.239807 
	C159.016769,285.052948 158.855591,289.872131 159.051010,294.677399 
	C159.180237,297.854736 158.169525,299.206757 154.829208,299.042999 
	C150.192612,298.815674 145.537857,298.958435 140.425461,298.897034 
	C139.960037,294.399628 139.960037,289.947937 139.960037,284.996094 
	C144.445480,284.996094 149.489380,284.996094 155.142700,284.996094 
	C155.142700,279.640503 155.142700,274.775085 155.142700,270.287659 
	C158.942230,269.838287 162.072189,269.468109 165.604141,269.152222 
z"/>
<path fill="#2F30E1" opacity="1.000000" stroke="none" 
	d="
M186.189819,329.996490 
	C186.189819,325.458038 186.189819,320.919617 186.189819,316.255463 
	C181.333206,315.794800 177.170715,315.399994 172.354889,314.644470 
	C171.403931,309.549988 171.106308,304.816193 170.927338,300.053070 
	C171.045975,300.023712 171.276169,300.106293 171.721405,300.056305 
	C176.707825,300.006317 181.248993,300.006317 185.552567,300.006317 
	C186.429337,305.801483 187.216095,311.001770 188.002609,316.653015 
	C188.002197,319.574066 188.230698,322.072571 187.927902,324.504944 
	C187.694687,326.378571 186.793823,328.169037 186.189819,329.996490 
z"/>
<path fill="#313EE3" opacity="1.000000" stroke="none" 
	d="
M201.955170,347.970551 
	C201.962479,351.611053 201.970566,355.251587 201.976349,358.892090 
	C201.977386,359.554016 202.195312,360.328644 201.930450,360.860779 
	C198.590179,367.571594 192.628220,362.668396 187.998199,363.831787 
	C184.734116,364.651978 185.529327,361.655487 185.528839,359.759155 
	C185.527863,355.960358 185.528534,352.161560 185.528534,347.989471 
	C190.552902,347.989471 195.824417,347.989471 201.545837,347.999146 
	C201.995743,348.008789 201.955170,347.970551 201.955170,347.970551 
z"/>
<path fill="#3127E1" opacity="1.000000" stroke="none" 
	d="
M170.981171,316.157898 
	C170.983017,319.951355 170.811905,323.755066 171.036926,327.535248 
	C171.248734,331.093353 169.721603,332.100494 166.369217,332.020386 
	C152.870697,331.697876 155.270660,333.784607 155.030914,320.899689 
	C155.006363,319.581146 155.052353,318.261322 155.581696,316.462006 
	C161.058914,316.040588 166.020050,316.099243 170.981171,316.157898 
z"/>
<path fill="#3412E0" opacity="1.000000" stroke="none" 
	d="
M139.991058,254.128357 
	C139.994812,257.760712 139.780228,261.409973 140.060471,265.020874 
	C140.373871,269.058746 138.651825,270.319794 134.858566,270.019318 
	C131.905533,269.785431 128.918533,269.980255 125.358749,269.791016 
	C124.493828,269.392700 124.216797,269.187836 123.939774,268.983002 
	C123.973061,264.326813 124.006355,259.670624 124.566734,254.550690 
	C130.059570,254.100754 135.025314,254.114548 139.991058,254.128357 
z"/>
<path fill="#3046E2" opacity="1.000000" stroke="none" 
	d="
M202.015106,348.028809 
	C201.702805,343.066589 201.371140,338.084351 201.506439,332.576538 
	C206.928284,332.369232 211.883163,332.687469 216.906784,333.462402 
	C216.976288,338.219727 216.977051,342.520325 216.736664,346.896881 
	C216.330765,347.008545 216.166031,347.044250 216.001297,347.079956 
	C211.628891,347.374023 207.256485,347.668121 202.419617,347.966370 
	C201.955170,347.970551 201.995743,348.008789 202.015106,348.028809 
z"/>
<path fill="#3909E1" opacity="1.000000" stroke="none" 
	d="
M123.564636,269.164520 
	C124.216797,269.187836 124.493828,269.392700 124.896362,269.826660 
	C125.012550,273.378479 124.829399,276.712341 125.041161,280.020905 
	C125.268173,283.567810 124.190163,285.317810 120.315178,285.033905 
	C116.848526,284.779938 113.348572,284.980469 109.438812,284.980469 
	C109.438812,279.777069 109.438812,274.732666 109.438812,270.058655 
	C113.977127,269.823456 118.583313,269.584747 123.564636,269.164520 
z"/>
<path fill="#311FE1" opacity="1.000000" stroke="none" 
	d="
M154.872955,219.997452 
	C154.911133,216.337570 154.949310,212.677689 154.922577,208.568420 
	C154.857697,208.119034 154.954910,208.031326 155.261200,207.966003 
	C155.987030,207.609879 156.406540,207.319077 157.085724,207.374710 
	C161.666718,207.721146 165.988007,207.721146 171.037643,207.721146 
	C171.037643,212.976974 171.037643,218.005234 170.569855,223.007629 
	C165.443481,222.988312 160.784897,222.994873 155.952209,222.714920 
	C155.476410,221.618088 155.174683,220.807770 154.872955,219.997452 
z"/>
<path fill="#3412E0" opacity="1.000000" stroke="none" 
	d="
M143.011505,177.082947 
	C141.865585,177.616302 140.719666,178.149658 139.081879,178.911957 
	C140.319611,184.007446 141.569183,189.151764 142.818771,194.296082 
	C142.507111,194.397293 142.195450,194.498505 141.883774,194.599716 
	C141.397995,193.864548 140.912201,193.129379 140.155945,192.208679 
	C135.234528,192.001099 130.583557,191.979034 125.436798,191.442871 
	C124.940987,186.353485 124.940987,181.778183 124.940987,177.082947 
	C131.422424,177.082947 137.216965,177.082947 143.011505,177.082947 
z"/>
<path fill="#3909E1" opacity="1.000000" stroke="none" 
	d="
M122.998398,222.135147 
	C118.632935,222.542770 114.267479,222.950409 109.437210,223.401443 
	C109.437210,217.818130 109.437210,212.809204 109.437210,208.150925 
	C113.624786,207.890945 117.909737,207.624908 122.764984,207.635986 
	C123.223000,212.653793 123.110695,217.394470 122.998398,222.135147 
z"/>
<path fill="#313EE3" opacity="1.000000" stroke="none" 
	d="
M178.981979,177.197800 
	C180.702362,177.130234 182.422729,177.062668 184.806320,177.021454 
	C185.469528,177.047806 185.939117,177.214813 185.962006,177.627472 
	C185.984879,182.983734 185.984879,187.927353 185.984879,192.867859 
	C181.149368,192.867859 176.892975,192.944168 172.645905,192.779709 
	C172.056732,192.756912 171.513611,191.545364 171.263611,190.622070 
	C171.725967,189.242859 172.146622,188.082062 171.976196,187.015762 
	C171.074753,181.375565 172.202805,177.304504 178.981979,177.197800 
z"/>
<path fill="#313EE3" opacity="1.000000" stroke="none" 
	d="
M186.140503,330.227631 
	C186.793823,328.169037 187.694687,326.378571 187.927902,324.504944 
	C188.230698,322.072571 188.002197,319.574066 188.455658,316.581116 
	C192.967865,315.764618 197.026779,315.470947 201.194107,315.417236 
	C201.594589,316.089172 201.886658,316.521179 202.097168,317.413269 
	C201.983383,322.181305 201.951157,326.489319 201.461868,330.862579 
	C196.067841,330.925293 191.130859,330.922729 186.193893,330.920166 
	C186.193893,330.920166 186.091171,330.458771 186.140503,330.227631 
z"/>
<path fill="#3909E1" opacity="1.000000" stroke="none" 
	d="
M93.139732,252.927826 
	C93.102379,248.623032 93.065025,244.318237 93.537964,239.546570 
	C98.604370,239.079697 103.160500,239.079697 107.691895,239.079697 
	C107.691895,244.057617 107.691895,248.288284 107.691895,252.927826 
	C102.649231,252.927826 97.894485,252.927826 93.139732,252.927826 
z"/>
<path fill="#3127E1" opacity="1.000000" stroke="none" 
	d="
M155.199524,162.007736 
	C158.091309,161.672043 160.982742,161.333191 163.875015,161.001770 
	C165.773788,160.784195 167.673798,160.577332 169.738998,160.924500 
	C169.864105,161.658966 169.823456,161.834595 169.547791,162.345108 
	C169.208450,165.150330 168.768921,167.662170 169.068771,170.082428 
	C169.714066,175.290970 166.504044,175.022369 162.964432,175.059952 
	C159.320480,175.098648 156.465485,175.124603 156.863190,170.003143 
	C157.065598,167.396790 155.800980,164.676514 155.199524,162.007736 
z"/>
<path fill="#313EE3" opacity="1.000000" stroke="none" 
	d="
M186.110214,162.456543 
	C189.460037,161.997025 192.742737,161.997025 196.001343,161.997025 
	C196.001343,164.986267 196.267822,167.583099 195.937988,170.101837 
	C195.460312,173.749481 197.038223,175.252426 200.265961,175.688278 
	C195.393341,175.938950 190.697800,175.901306 186.002258,175.863678 
	C186.015854,171.547806 186.029465,167.231934 186.110214,162.456543 
z"/>
<path fill="#AEC6F1" opacity="1.000000" stroke="none" 
	d="
M213.998688,146.126083 
	C210.310776,146.091354 206.622879,146.056625 202.484451,146.091568 
	C203.257965,145.775177 204.480957,145.056290 205.706192,145.052429 
	C227.693604,144.982986 249.681305,144.982635 271.668915,145.004288 
	C288.321716,145.020676 304.974487,145.088791 321.832153,145.518738 
	C316.333496,145.940369 310.629974,145.977142 303.996796,146.013168 
	C296.044830,146.055969 289.022522,146.099533 281.535095,146.081268 
	C274.046478,146.062500 267.022980,146.105530 259.536682,146.089539 
	C254.383072,146.063980 249.692230,146.097443 244.566833,146.070862 
	C242.088638,146.048279 240.045013,146.085709 237.541397,146.064148 
	C233.055893,146.045135 229.030350,146.085114 224.549683,146.065567 
	C220.729263,146.046051 217.363983,146.086075 213.998688,146.126083 
z"/>
<path fill="#E7ECFF" opacity="1.000000" stroke="none" 
	d="
M262.089264,280.054352 
	C262.057312,306.086182 262.028198,332.118042 261.987305,358.149872 
	C261.984436,359.970154 261.894379,361.790344 261.406189,363.486694 
	C260.967529,363.362854 260.861633,362.893890 260.922516,362.436310 
	C261.054901,334.675476 261.126404,307.372223 261.421143,280.090485 
	C261.644409,280.112000 262.089264,280.054352 262.089264,280.054352 
z"/>
<path fill="#E7ECFF" opacity="1.000000" stroke="none" 
	d="
M123.059937,222.392654 
	C123.110695,217.394470 123.223000,212.653793 123.168045,207.538651 
	C123.670425,207.913223 124.879974,208.635376 124.918823,209.415848 
	C125.116066,213.377380 125.009705,217.354034 125.009705,221.934845 
	C134.484940,221.934845 143.856155,221.949783 153.226532,221.868378 
	C153.532242,221.865723 153.829422,220.881149 154.501770,220.175873 
	C155.174683,220.807770 155.476410,221.618088 155.902740,223.177444 
	C155.692062,228.315170 155.356781,232.703857 154.960052,236.624619 
	C154.898621,231.894684 154.898621,227.632690 154.898621,223.153534 
	C151.856049,223.153534 149.407883,223.153534 146.959717,223.153534 
	C139.622177,223.109116 132.284637,223.064697 124.487030,223.094452 
	C123.725128,222.995789 123.423302,222.822968 123.059937,222.392654 
z"/>
<path fill="#829ADE" opacity="1.000000" stroke="none" 
	d="
M260.861633,362.893890 
	C260.861633,362.893890 260.967529,363.362854 260.985535,363.602417 
	C246.554520,363.841980 232.105453,363.841980 217.373993,363.841980 
	C217.015121,358.813171 216.653534,353.746368 216.549301,348.318695 
	C217.227798,347.997620 217.648972,348.037415 218.005768,348.535583 
	C217.941422,353.519287 217.941422,358.044556 217.941422,362.861084 
	C221.490738,362.861084 224.247009,362.861084 227.455444,362.905548 
	C230.938507,362.915009 233.969406,362.880005 237.452179,362.895752 
	C240.935989,362.914490 243.967941,362.882477 247.461517,362.897766 
	C252.235977,362.928009 256.548798,362.910950 260.861633,362.893890 
z"/>
<path fill="#311FE1" opacity="1.000000" stroke="none" 
	d="
M155.128143,162.465393 
	C155.800980,164.676514 157.065598,167.396790 156.863190,170.003143 
	C156.465485,175.124603 159.320480,175.098648 162.964432,175.059952 
	C166.504044,175.022369 169.714066,175.290970 169.068771,170.082428 
	C168.768921,167.662170 169.208450,165.150330 169.634995,162.803192 
	C169.957184,167.182800 169.957184,171.439209 169.957184,176.184906 
	C164.624115,176.184906 159.843063,176.184906 155.035446,176.097122 
	C155.008881,176.009338 155.034470,175.827698 155.034470,175.827698 
	C155.041916,171.526138 155.049347,167.224594 155.128143,162.465393 
z"/>
<path fill="#AEC6F1" opacity="1.000000" stroke="none" 
	d="
M262.553101,280.045898 
	C262.089264,280.054352 261.644409,280.112000 261.369568,279.866760 
	C261.094696,279.621521 261.089081,279.162415 261.547607,279.092468 
	C269.337006,278.968353 276.667938,278.914154 283.998840,278.859955 
	C294.165100,278.966156 304.331360,279.072357 314.767212,279.511353 
	C297.696869,279.908600 280.356934,279.973022 262.553101,280.045898 
z"/>
<path fill="#E7ECFF" opacity="1.000000" stroke="none" 
	d="
M140.013153,254.092712 
	C135.025314,254.114548 130.059570,254.100754 124.641235,254.096817 
	C125.748688,253.731995 127.296478,253.112015 128.871292,253.033417 
	C132.208191,252.866852 135.559189,252.982635 138.816360,252.982635 
	C138.816360,248.028244 138.816360,243.736969 138.816360,238.807343 
	C133.876862,238.807343 129.102524,238.807343 124.262611,238.368774 
	C129.274933,237.930206 134.352844,237.930206 140.047318,237.930206 
	C140.047318,242.871368 140.047318,247.427765 140.061096,252.712830 
	C140.047333,253.622681 140.019806,253.803864 139.992279,253.985046 
	C139.992279,253.985046 140.035263,254.057068 140.013153,254.092712 
z"/>
<path fill="#829ADE" opacity="1.000000" stroke="none" 
	d="
M93.225426,253.360931 
	C97.894485,252.927826 102.649231,252.927826 107.691895,252.927826 
	C107.691895,248.288284 107.691895,244.057617 107.691895,239.079697 
	C103.160500,239.079697 98.604370,239.079697 93.591141,239.091690 
	C98.266693,238.547928 103.399338,237.992172 109.033516,237.382126 
	C109.033516,242.847885 109.162827,247.435837 108.905426,252.001999 
	C108.862831,252.757645 107.145546,253.995239 106.174248,254.022720 
	C101.892113,254.143829 97.599762,253.903458 93.225426,253.360931 
z"/>
<path fill="#E7ECFF" opacity="1.000000" stroke="none" 
	d="
M186.253265,331.360413 
	C191.130859,330.922729 196.067841,330.925293 201.929962,330.953430 
	C207.192490,330.979004 211.529831,330.979004 215.903976,330.979004 
	C215.903976,325.913605 215.903976,321.505951 216.027817,316.863403 
	C216.426819,316.418701 216.701981,316.208862 216.977386,316.279266 
	C217.039093,316.735901 217.100586,316.912292 217.165573,317.546417 
	C217.214218,322.269867 217.259384,326.535583 217.251236,331.110931 
	C217.189407,331.629822 217.180893,331.839111 217.086609,332.286957 
	C216.946579,332.685608 216.892319,332.845673 216.838043,333.005676 
	C211.883163,332.687469 206.928284,332.369232 201.521332,332.124573 
	C196.150391,332.065674 191.231522,331.933136 186.253265,331.360413 
z"/>
<path fill="#AEC6F1" opacity="1.000000" stroke="none" 
	d="
M143.383759,177.015045 
	C137.216965,177.082947 131.422424,177.082947 124.940987,177.082947 
	C124.940987,181.778183 124.940987,186.353485 124.975006,191.384048 
	C124.538261,186.791122 124.067505,181.742920 123.530922,175.988800 
	C134.103287,175.988800 144.102707,175.988800 154.568298,175.908249 
	C155.034470,175.827698 155.008881,176.009338 154.969543,176.337280 
	C154.930191,176.665222 154.788696,177.142242 154.788696,177.142242 
	C153.770432,177.077759 152.752167,177.013290 150.946152,176.955704 
	C148.777145,177.003998 147.395905,177.045395 146.014648,177.086792 
	C145.261765,177.040237 144.508896,176.993683 143.383759,177.015045 
z"/>
<path fill="#E7ECFF" opacity="1.000000" stroke="none" 
	d="
M171.252045,316.060791 
	C166.020050,316.099243 161.058914,316.040588 155.645111,316.000671 
	C158.237213,315.679932 161.276627,315.273651 164.328903,315.026642 
	C166.082367,314.884705 167.856689,315.000916 170.376663,315.000916 
	C169.972504,309.987885 169.602203,305.394775 169.072693,300.402344 
	C168.913513,300.003021 169.355774,299.932861 169.824219,299.957977 
	C170.464676,300.016174 170.636673,300.049286 170.808685,300.082428 
	C171.106308,304.816193 171.403931,309.549988 171.918488,314.654114 
	C171.931259,315.337524 171.727097,315.650604 171.252045,316.060791 
z"/>
<path fill="#311FE1" opacity="1.000000" stroke="none" 
	d="
M178.540436,177.127197 
	C172.202805,177.304504 171.074753,181.375565 171.976196,187.015762 
	C172.146622,188.082062 171.725967,189.242859 171.114990,190.242584 
	C170.775452,185.724167 170.898987,181.323242 171.020157,176.962311 
	C171.017792,177.002335 170.937607,177.003250 170.937607,177.003250 
	C173.324692,177.021042 175.711792,177.038818 178.540436,177.127197 
z"/>
<path fill="#D1D6F9" opacity="1.000000" stroke="none" 
	d="
M169.946259,270.045715 
	C169.946259,270.045715 169.483994,269.956085 169.254425,269.903046 
	C169.344269,264.898132 169.663666,259.946259 169.984344,254.303741 
	C169.985626,253.613113 170.060944,253.136932 170.247314,253.087006 
	C170.433685,253.037094 170.817261,252.995026 170.914886,253.267563 
	C171.070312,253.724258 171.128082,253.908401 171.111755,254.545471 
	C171.037674,259.574524 171.037674,264.150696 171.037674,268.800385 
	C176.031433,268.800385 180.474930,268.800385 185.135483,268.847656 
	C185.352539,268.894897 185.796005,268.867828 185.886169,269.146667 
	C185.987885,269.620544 185.999451,269.815552 185.544678,270.008881 
	C180.413849,270.024780 175.749359,270.042419 170.800323,270.047668 
	C170.325943,270.038757 170.136093,270.042236 169.946259,270.045715 
z"/>
<path fill="#D1D6F9" opacity="1.000000" stroke="none" 
	d="
M154.826096,177.142792 
	C154.788696,177.142242 154.930191,176.665222 154.996094,176.425064 
	C159.843063,176.184906 164.624115,176.184906 169.957184,176.184906 
	C169.957184,171.439209 169.957184,167.182800 169.869995,162.468292 
	C169.823456,161.834595 169.864105,161.658966 169.962067,161.219086 
	C170.348709,165.993866 170.678040,171.032883 170.972488,176.537582 
	C170.937607,177.003250 171.017792,177.002335 170.554260,177.000763 
	C165.434845,177.012054 160.778976,177.024918 155.811432,177.033173 
	C155.292435,177.042343 155.085098,177.056137 154.877747,177.069931 
	C154.877747,177.069931 154.863495,177.143356 154.826096,177.142792 
z"/>
<path fill="#829ADE" opacity="1.000000" stroke="none" 
	d="
M170.060944,253.136932 
	C170.060944,253.136932 169.985626,253.613113 169.927124,253.846451 
	C160.222351,254.060226 150.576096,254.040680 140.461060,254.003082 
	C140.019806,253.803864 140.047333,253.622681 140.119232,253.170532 
	C141.189484,252.917831 142.215408,252.936096 144.088043,252.961685 
	C153.310150,253.024994 161.685547,253.080963 170.060944,253.136932 
z"/>
<path fill="#E7ECFF" opacity="1.000000" stroke="none" 
	d="
M218.070129,348.077209 
	C217.648972,348.037415 217.227798,347.997620 216.489258,347.943909 
	C216.171860,347.929993 216.007812,347.519043 216.004547,347.299500 
	C216.166031,347.044250 216.330765,347.008545 217.202484,346.974579 
	C222.584534,346.976288 227.259613,346.976288 231.439590,346.976288 
	C231.982910,342.835297 232.432892,339.405579 232.952667,336.431946 
	C232.669800,340.644745 232.317123,344.401520 231.507202,348.090027 
	C226.723343,348.040283 222.396744,348.058746 218.070129,348.077209 
z"/>
<path fill="#D1D6F9" opacity="1.000000" stroke="none" 
	d="
M185.750366,175.941071 
	C190.697800,175.901306 195.393341,175.938950 200.555695,175.942047 
	C201.116684,176.101624 201.210876,176.295715 201.131256,176.766602 
	C200.957443,177.043381 200.947250,177.053513 200.484955,177.036346 
	C195.328140,177.084381 190.633636,177.149597 185.939117,177.214813 
	C185.939117,177.214813 185.469528,177.047806 185.234009,176.965912 
	C185.165146,176.595505 185.331818,176.306992 185.750366,175.941071 
z"/>
<path fill="#0491E2" opacity="1.000000" stroke="none" 
	d="
M359.331055,271.816376 
	C360.118958,270.921783 361.230316,270.013885 362.679382,269.097900 
	C361.896240,269.994263 360.775330,270.898651 359.331055,271.816376 
z"/>
<path fill="#0491E2" opacity="1.000000" stroke="none" 
	d="
M363.400787,269.029968 
	C363.550323,268.700226 364.025116,268.364746 364.806610,267.995911 
	C364.650879,268.316437 364.188477,268.670319 363.400787,269.029968 
z"/>
<path fill="#000000" opacity="1.000000" stroke="none" 
	d="
M305.001770,188.827454 
	C310.711884,189.540421 316.422028,190.253387 322.568054,190.899902 
	C327.446777,193.846252 332.785004,195.601807 334.913330,201.504532 
	C337.815521,209.553696 338.581635,217.844177 334.527435,225.132156 
	C332.339081,229.066147 326.764862,231.116669 321.968811,234.038422 
	C318.696930,234.779602 316.174438,235.499283 313.217407,236.174911 
	C295.866425,236.067139 278.949982,236.003418 262.017334,235.477249 
	C262.016266,219.709885 262.031342,204.404968 262.498169,189.055893 
	C265.991333,188.952240 269.032806,188.892746 272.534851,188.900513 
	C282.951294,188.924545 292.907135,188.881348 303.218018,188.899597 
	C304.049286,188.916534 304.525543,188.871994 305.001770,188.827454 
z"/>
<path fill="#0F76E3" opacity="1.000000" stroke="none" 
	d="
M313.651917,236.218948 
	C316.174438,235.499283 318.696930,234.779602 321.611572,234.117188 
	C321.669098,236.991058 321.086243,239.804092 321.046051,242.624878 
	C320.920593,251.427399 321.147400,260.236755 320.913361,269.034821 
	C320.840485,271.774475 319.735443,274.486694 319.053589,277.597900 
	C308.000000,278.040314 308.114563,278.038727 307.962463,267.052734 
	C307.847961,258.780548 307.341766,250.514328 307.134583,242.242325 
	C307.098419,240.798126 307.680420,239.338440 308.359436,237.419479 
	C310.378632,236.708344 312.015259,236.463638 313.651917,236.218948 
z"/>
<path fill="#156DE3" opacity="1.000000" stroke="none" 
	d="
M304.933777,188.425873 
	C304.525543,188.871994 304.049286,188.916534 302.935760,188.617279 
	C298.863464,188.126038 295.428436,187.978592 291.672913,187.587158 
	C288.414215,187.116730 285.476013,186.890320 282.000183,186.622482 
	C282.000183,172.942108 282.000183,159.542603 282.000183,146.143097 
	C289.022522,146.099533 296.044830,146.055969 303.532043,146.073212 
	C303.680634,153.096832 303.003479,160.067215 303.149170,167.020370 
	C303.296021,174.030594 304.259857,181.023697 304.933777,188.425873 
z"/>
<path fill="#1C64E2" opacity="1.000000" stroke="none" 
	d="
M283.999573,278.433472 
	C276.667938,278.914154 269.337006,278.968353 261.373901,278.703857 
	C260.183075,273.158569 257.994232,267.422272 259.433075,262.820190 
	C261.823242,255.175140 259.572144,248.145325 259.517090,240.854523 
	C259.507050,239.529739 260.657654,238.196198 261.723267,236.892700 
	C269.448730,236.982407 276.723389,237.046127 283.998016,237.109848 
	C284.238770,242.087296 284.479492,247.064758 284.749481,252.646820 
	C287.706207,252.866760 291.032410,253.114182 294.215881,253.688110 
	C290.178589,254.014618 286.284088,254.014618 282.018524,254.014618 
	C282.018524,259.429504 281.930298,264.177948 282.107147,268.916534 
	C282.135895,269.687073 283.337860,270.413849 283.997498,271.160858 
	C283.998444,273.442902 283.999390,275.724976 283.999573,278.433472 
z"/>
<path fill="#000000" opacity="1.000000" stroke="none" 
	d="
M298.014252,256.151306 
	C297.999878,260.106171 297.985504,264.061066 297.597168,268.609070 
	C292.582855,269.569977 287.942535,269.937683 283.258850,270.308838 
	C283.258850,264.723724 283.258850,259.987488 283.258850,254.442047 
	C288.397766,255.037338 293.206024,255.594315 298.014252,256.151306 
z"/>
<path fill="#AEC6F1" opacity="1.000000" stroke="none" 
	d="
M284.463501,237.048584 
	C276.723389,237.046127 269.448730,236.982407 261.699829,236.660492 
	C261.225525,236.402283 261.270416,235.937225 261.461243,235.921997 
	C261.652039,235.906784 262.033539,235.939697 262.033539,235.939697 
	C278.949982,236.003418 295.866425,236.067139 313.217407,236.174896 
	C312.015259,236.463638 310.378632,236.708344 308.370361,237.021088 
	C300.308807,237.055176 292.618866,237.021255 284.463501,237.048584 
z"/>
<path fill="#E7ECFF" opacity="1.000000" stroke="none" 
	d="
M298.065979,255.765594 
	C293.206024,255.594315 288.397766,255.037338 283.258850,254.442047 
	C283.258850,259.987488 283.258850,264.723724 283.258850,270.308838 
	C287.942535,269.937683 292.582855,269.569977 297.617828,269.025177 
	C297.084442,269.558441 296.197845,270.806549 295.220856,270.881836 
	C291.803436,271.145233 288.354797,271.003876 284.457764,271.088562 
	C283.337860,270.413849 282.135895,269.687073 282.107147,268.916534 
	C281.930298,264.177948 282.018524,259.429504 282.018524,254.014618 
	C286.284088,254.014618 290.178589,254.014618 294.532471,253.942444 
	C296.033783,254.373489 297.075745,254.876694 298.065979,255.765594 
z"/>
<path fill="#304EE3" opacity="1.000000" stroke="none" 
	d="
M213.999435,146.582703 
	C217.363983,146.086075 220.729263,146.046051 224.550079,146.483337 
	C225.515961,151.163910 226.026306,155.367218 226.415787,158.575165 
	C228.801620,159.997940 230.481888,160.999954 231.922867,161.662216 
	C227.221115,161.553650 222.758667,161.784821 218.400391,162.010590 
	C218.400391,166.770081 218.400391,171.821671 218.400391,177.325485 
	C222.886154,176.922775 226.942291,176.558609 230.904297,176.535233 
	C229.376831,177.504639 227.943542,178.133286 226.574081,178.733917 
	C226.382019,181.355972 226.034927,183.962555 226.025818,186.570343 
	C225.973068,201.662781 226.142380,216.757874 225.891922,231.846329 
	C225.835007,235.274963 226.923309,237.009338 229.536621,237.917572 
	C220.380615,237.941818 211.688385,237.893799 203.229889,237.622971 
	C204.135513,236.685471 205.514771,235.762253 205.374649,235.286896 
	C202.673431,226.122971 205.364151,217.117813 206.455032,208.017212 
	C219.175385,207.605530 217.775208,210.179077 217.880630,196.833206 
	C217.883240,196.502701 217.844772,196.167175 217.888184,195.842392 
	C218.392059,192.071960 216.480576,190.736908 212.999786,190.971619 
	C213.333252,176.327530 213.666718,161.683426 213.999435,146.582703 
z"/>
<path fill="#829ADE" opacity="1.000000" stroke="none" 
	d="
M212.543976,191.011810 
	C216.480576,190.736908 218.392059,192.071960 217.888184,195.842392 
	C217.844772,196.167175 217.883240,196.502701 217.880630,196.833206 
	C217.775208,210.179077 219.175385,207.605530 205.987915,207.977615 
	C199.147537,207.982712 193.231033,207.982712 187.282410,207.982712 
	C186.841232,213.031693 186.458420,217.412460 186.074341,221.381668 
	C185.791687,216.425949 185.510315,211.881790 185.209885,207.029694 
	C186.959915,207.029694 188.599747,207.030563 190.239578,207.029556 
	C197.860733,207.024918 205.485641,207.138702 213.099380,206.898514 
	C214.379150,206.858124 216.622162,205.353287 216.684830,204.409851 
	C216.923691,200.813629 216.452271,197.170242 216.211075,192.926483 
	C211.845428,192.645630 206.880295,192.326218 201.941650,191.743103 
	C201.994141,191.304642 202.020142,191.129868 202.046143,190.955109 
	C205.393478,190.987396 208.740814,191.019699 212.543976,191.011810 
z"/>
<path fill="#D1D6F9" opacity="1.000000" stroke="none" 
	d="
M202.000778,190.496475 
	C202.020142,191.129868 201.994141,191.304642 201.556061,191.549545 
	C201.078415,186.764297 201.012833,181.908905 200.947250,177.053513 
	C200.947250,177.053513 200.957443,177.043381 200.959457,177.040863 
	C201.292786,181.371506 201.624100,185.704681 202.000778,190.496475 
z"/>
<path fill="#AEC6F1" opacity="1.000000" stroke="none" 
	d="
M170.008499,270.507263 
	C170.136093,270.042236 170.325943,270.038757 170.749146,270.509216 
	C171.080399,280.690857 171.178284,290.398560 171.276169,300.106293 
	C171.276169,300.106293 171.045975,300.023712 170.927338,300.053070 
	C170.636673,300.049286 170.464676,300.016174 170.041840,299.905334 
	C169.884262,290.207977 169.977509,280.588409 170.008499,270.507263 
z"/>
<path fill="#E7ECFF" opacity="1.000000" stroke="none" 
	d="
M154.881210,177.533218 
	C155.085098,177.056137 155.292435,177.042343 155.760712,177.497101 
	C156.018784,182.439606 155.909988,186.916687 156.040710,191.386749 
	C156.193283,196.603790 156.555069,201.814713 156.826065,207.028290 
	C156.406540,207.319077 155.987030,207.609879 155.306671,207.918915 
	C154.992126,197.956940 154.938400,187.976715 154.881210,177.533218 
z"/>
<path fill="#3412E0" opacity="1.000000" stroke="none" 
	d="
M146.258957,177.329346 
	C147.395905,177.045395 148.777145,177.003998 150.568832,177.026367 
	C149.487259,177.250732 147.995270,177.411301 146.258957,177.329346 
z"/>
<path fill="#311FE1" opacity="1.000000" stroke="none" 
	d="
M170.247314,253.087006 
	C161.685547,253.080963 153.310150,253.024994 144.470093,252.910553 
	C143.766312,244.020264 143.434036,235.188477 143.428497,226.356491 
	C143.427933,225.448013 145.379013,224.538330 146.692108,223.391357 
	C149.407883,223.153534 151.856049,223.153534 154.898621,223.153534 
	C154.898621,227.632690 154.898621,231.894684 154.991821,237.046768 
	C156.376526,238.292130 157.659912,238.913651 158.960999,238.953156 
	C162.982727,239.075302 167.011185,238.975662 171.011566,239.429382 
	C170.929810,244.262772 170.873535,248.628891 170.817261,252.995026 
	C170.817261,252.995026 170.433685,253.037094 170.247314,253.087006 
z"/>
<path fill="#000000" opacity="1.000000" stroke="none" 
	d="
M171.721405,300.056305 
	C171.178284,290.398560 171.080399,280.690857 171.033691,270.521576 
	C175.749359,270.042419 180.413849,270.024780 185.534393,269.998688 
	C185.990433,269.990204 185.968277,269.967438 185.988434,270.432312 
	C186.000153,275.202209 185.991714,279.507263 185.653809,284.034180 
	C186.336731,284.505463 187.347382,284.962677 188.361816,284.971222 
	C196.249817,285.037964 204.139801,284.945557 212.026016,285.083496 
	C213.706375,285.112854 215.373795,285.882568 217.006866,286.686279 
	C216.914719,288.899109 216.623932,290.767517 216.855164,292.568878 
	C217.594025,298.324707 216.246460,299.961731 210.429428,299.962036 
	C207.484375,299.962219 204.539307,299.962097 200.828049,299.962097 
	C201.218872,305.229156 201.578476,310.075500 201.722137,314.976135 
	C201.506195,315.030487 201.085693,315.177277 201.085693,315.177277 
	C197.026779,315.470947 192.967865,315.764618 188.455902,316.130157 
	C187.216095,311.001770 186.429337,305.801483 185.552567,300.006317 
	C181.248993,300.006317 176.707825,300.006317 171.721405,300.056305 
z"/>
<path fill="#000000" opacity="1.000000" stroke="none" 
	d="
M232.882904,335.975861 
	C232.432892,339.405579 231.982910,342.835297 231.439590,346.976288 
	C227.259613,346.976288 222.584534,346.976288 217.443634,346.898590 
	C216.977051,342.520325 216.976288,338.219727 216.906784,333.462433 
	C216.892319,332.845673 216.946579,332.685608 217.537201,332.267212 
	C222.986588,332.316437 227.899612,332.623962 232.925949,333.209442 
	C232.987137,334.316895 232.935013,335.146362 232.882904,335.975861 
z"/>
<path fill="#000000" opacity="1.000000" stroke="none" 
	d="
M157.085754,207.374725 
	C156.555069,201.814713 156.193283,196.603790 156.040710,191.386749 
	C155.909988,186.916687 156.018784,182.439606 156.072357,177.501709 
	C160.778976,177.024918 165.434845,177.012054 170.556625,176.960739 
	C170.898987,181.323242 170.775452,185.724167 170.800537,190.504608 
	C171.513611,191.545364 172.056732,192.756912 172.645905,192.779709 
	C176.892975,192.944168 181.149368,192.867859 185.984879,192.867859 
	C185.984879,187.927353 185.984879,182.983734 185.962006,177.627472 
	C190.633636,177.149597 195.328140,177.084381 200.484955,177.036346 
	C201.012833,181.908905 201.078415,186.764297 201.529572,191.813232 
	C206.880295,192.326218 211.845428,192.645630 216.211075,192.926483 
	C216.452271,197.170242 216.923691,200.813629 216.684830,204.409851 
	C216.622162,205.353287 214.379150,206.858124 213.099380,206.898514 
	C205.485641,207.138702 197.860733,207.024918 190.239578,207.029556 
	C188.599747,207.030563 186.959915,207.029694 185.209885,207.029694 
	C185.510315,211.881790 185.791687,216.425949 185.816483,221.482849 
	C185.389084,222.063080 185.218277,222.130585 184.773178,222.146729 
	C184.316620,222.132492 184.134338,222.169632 183.707336,222.191101 
	C183.154617,222.353485 182.982346,222.619492 182.491516,222.997208 
	C178.697067,223.094528 175.356903,223.168076 171.754486,223.164703 
	C171.315430,223.043701 171.138641,222.999634 170.980469,222.975372 
	C170.999100,222.995163 171.037643,223.033493 171.037643,223.033493 
	C171.037643,218.005234 171.037643,212.976974 171.037643,207.721146 
	C165.988007,207.721146 161.666718,207.721146 157.085754,207.374725 
z"/>
<path fill="#000000" opacity="1.000000" stroke="none" 
	d="
M171.037033,238.962128 
	C167.011185,238.975662 162.982727,239.075302 158.960999,238.953156 
	C157.659912,238.913651 156.376526,238.292130 155.053268,237.514694 
	C155.356781,232.703857 155.692062,228.315170 156.076828,223.463959 
	C160.784897,222.994873 165.443481,222.988312 170.569855,223.007629 
	C171.037643,223.033493 170.999100,222.995163 171.018631,223.391235 
	C171.100250,225.173920 171.162323,226.560516 171.152954,228.350723 
	C171.127762,229.842972 171.174011,230.931595 171.163834,232.259247 
	C171.107422,232.498276 171.219070,232.976593 171.147766,233.342026 
	C171.043411,234.451263 171.010361,235.195084 170.740021,236.019928 
	C170.661957,236.410721 170.821182,236.720490 170.987549,237.013062 
	C170.994690,236.995880 170.965729,237.021317 171.004913,237.357239 
	C171.015747,238.142426 170.987396,238.591690 170.978577,239.021271 
	C170.998108,239.001587 171.037033,238.962128 171.037033,238.962128 
z"/>
<path fill="#000000" opacity="1.000000" stroke="none" 
	d="
M215.903976,317.098267 
	C215.903976,321.505951 215.903976,325.913605 215.903976,330.979004 
	C211.529831,330.979004 207.192490,330.979004 202.387024,330.888153 
	C201.951157,326.489319 201.983383,322.181305 202.544373,317.422699 
	C207.350082,317.014130 211.627029,317.056213 215.903976,317.098267 
z"/>
<path fill="#AEC6F1" opacity="1.000000" stroke="none" 
	d="
M216.027817,316.863403 
	C211.627029,317.056213 207.350082,317.014130 202.625931,316.962646 
	C201.886658,316.521179 201.594589,316.089172 201.194107,315.417236 
	C201.085693,315.177277 201.506195,315.030487 202.186829,315.041290 
	C207.525558,315.022522 212.183670,314.992981 217.184280,314.997498 
	C217.755615,315.014343 217.984467,314.997131 218.664124,314.963623 
	C223.401474,314.932281 227.687988,314.917267 231.911224,315.304413 
	C230.234390,315.880707 228.620865,316.054871 226.563004,316.176727 
	C223.444962,316.117432 220.771240,316.110413 217.819214,316.058319 
	C217.352982,316.008514 217.165070,316.003754 216.977142,315.999023 
	C216.701981,316.208862 216.426819,316.418701 216.027817,316.863403 
z"/>
<path fill="#235AE2" opacity="1.000000" stroke="none" 
	d="
M261.270416,235.937225 
	C261.270416,235.937225 261.225525,236.402283 261.248993,236.634491 
	C260.657654,238.196198 259.507050,239.529739 259.517090,240.854523 
	C259.572144,248.145325 261.823242,255.175140 259.433075,262.820190 
	C257.994232,267.422272 260.183075,273.158569 260.915405,278.773804 
	C261.089081,279.162415 261.094696,279.621521 261.146301,279.845245 
	C261.126404,307.372223 261.054901,334.675476 260.922516,362.436310 
	C256.548798,362.910950 252.235977,362.928009 247.461578,362.468994 
	C246.760742,359.536102 246.616699,357.065399 246.260086,354.625763 
	C245.714569,350.894135 244.451981,347.177460 244.494263,343.465820 
	C244.651947,329.622406 248.207520,315.901184 245.122437,301.906860 
	C243.383774,294.020050 246.799118,286.068024 245.327667,277.765686 
	C243.841003,269.377502 244.980316,260.520325 245.019012,251.868851 
	C245.025620,250.390228 244.753525,248.507584 245.519409,247.508835 
	C248.064865,244.189529 245.830566,241.233231 245.488174,238.072159 
	C245.064499,234.161087 245.131271,230.180588 245.219208,226.235275 
	C245.298294,222.686539 245.820969,219.147461 245.893250,215.598923 
	C245.929489,213.821152 245.185196,212.034088 245.165970,210.247238 
	C245.120926,206.064377 245.303772,201.879181 245.388000,197.694809 
	C245.468811,193.679855 245.458069,189.660843 245.645721,185.651001 
	C245.782913,182.719513 246.843552,179.678406 246.336456,176.896942 
	C244.472580,166.673477 244.242081,156.437866 245.001389,146.130920 
	C249.692230,146.097443 254.383072,146.063980 259.534607,146.507172 
	C259.663544,152.073212 259.169464,157.158981 259.056793,162.253189 
	C258.981140,165.674103 259.414673,169.109283 259.675476,172.533905 
	C260.094025,178.030136 260.558105,183.522903 261.008514,189.484406 
	C261.099518,205.280197 261.184967,220.608719 261.270416,235.937225 
z"/>
<path fill="#2953E3" opacity="1.000000" stroke="none" 
	d="
M227.007324,316.229004 
	C228.620865,316.054871 230.234390,315.880707 231.922058,315.344604 
	C231.996185,314.982666 231.915604,315.003693 232.328201,314.853271 
	C232.477570,309.837738 232.214325,304.972626 231.527969,300.051270 
	C229.401520,299.921692 227.698181,299.848419 225.993835,299.583191 
	C225.992828,299.391235 225.992065,299.007324 226.042435,298.624939 
	C226.379196,293.870789 226.858139,289.501434 226.912949,285.126770 
	C227.037033,275.221680 226.951981,265.313965 226.951981,255.605484 
	C228.644485,255.028214 230.300720,254.463303 231.950867,253.673508 
	C231.944763,253.448608 231.858124,253.007172 231.924301,252.546082 
	C231.940979,247.717468 231.891479,243.349976 231.790726,238.680145 
	C231.159790,238.200317 230.580109,238.022812 230.000412,237.845306 
	C226.923309,237.009338 225.835007,235.274963 225.891922,231.846329 
	C226.142380,216.757874 225.973068,201.662781 226.025818,186.570343 
	C226.034927,183.962555 226.382019,181.355972 226.574081,178.733917 
	C227.943542,178.133286 229.376831,177.504639 231.263794,176.279297 
	C231.865692,171.122391 232.013931,166.562164 232.162155,162.001953 
	C230.481888,160.999954 228.801620,159.997940 226.415787,158.575165 
	C226.026306,155.367218 225.515961,151.163910 225.005219,146.542847 
	C229.030350,146.085114 233.055893,146.045135 237.540955,146.520721 
	C238.000320,158.450867 238.113220,169.866821 237.975113,181.279724 
	C237.731644,201.398880 237.174927,221.515350 237.069717,241.634613 
	C237.016800,251.754791 237.948853,261.879242 237.927383,272.000671 
	C237.901672,284.122711 237.154861,296.242310 237.067200,308.365479 
	C237.014511,315.652283 237.853943,322.943390 237.867371,330.233368 
	C237.879883,337.023499 237.269455,343.812744 237.049713,350.606140 
	C236.917862,354.682037 237.009232,358.765137 237.000290,362.845001 
	C233.969406,362.880005 230.938507,362.915009 227.456253,362.494995 
	C227.380096,357.854980 227.755325,353.669922 228.140900,349.369476 
	C229.206894,349.031799 230.585678,348.595032 231.964462,348.158264 
	C232.317123,344.401520 232.669800,340.644745 232.952682,336.431946 
	C232.935013,335.146362 232.987137,334.316895 232.875473,332.848938 
	C230.808304,331.791504 228.904907,331.372528 227.000748,330.491150 
	C227.002426,325.428833 227.004883,320.828918 227.007324,316.229004 
z"/>
<path fill="#2755E4" opacity="1.000000" stroke="none" 
	d="
M237.452179,362.895752 
	C237.009232,358.765137 236.917862,354.682037 237.049713,350.606140 
	C237.269455,343.812744 237.879883,337.023499 237.867371,330.233368 
	C237.853943,322.943390 237.014511,315.652283 237.067200,308.365479 
	C237.154861,296.242310 237.901672,284.122711 237.927383,272.000671 
	C237.948853,261.879242 237.016800,251.754791 237.069717,241.634613 
	C237.174927,221.515350 237.731644,201.398880 237.975113,181.279724 
	C238.113220,169.866821 238.000320,158.450867 238.000931,146.579712 
	C240.045013,146.085709 242.088638,146.048279 244.566833,146.070877 
	C244.242081,156.437866 244.472580,166.673477 246.336456,176.896942 
	C246.843552,179.678406 245.782913,182.719513 245.645721,185.651001 
	C245.458069,189.660843 245.468811,193.679855 245.388000,197.694809 
	C245.303772,201.879181 245.120926,206.064377 245.165970,210.247238 
	C245.185196,212.034088 245.929489,213.821152 245.893250,215.598923 
	C245.820969,219.147461 245.298294,222.686539 245.219208,226.235275 
	C245.131271,230.180588 245.064499,234.161087 245.488174,238.072159 
	C245.830566,241.233231 248.064865,244.189529 245.519409,247.508835 
	C244.753525,248.507584 245.025620,250.390228 245.019012,251.868851 
	C244.980316,260.520325 243.841003,269.377502 245.327667,277.765686 
	C246.799118,286.068024 243.383774,294.020050 245.122437,301.906860 
	C248.207520,315.901184 244.651947,329.622406 244.494263,343.465820 
	C244.451981,347.177460 245.714569,350.894135 246.260086,354.625763 
	C246.616699,357.065399 246.760742,359.536102 246.999939,362.421692 
	C243.967941,362.882477 240.935989,362.914490 237.452179,362.895752 
z"/>
<path fill="#1C64E2" opacity="1.000000" stroke="none" 
	d="
M261.002960,189.017136 
	C260.558105,183.522903 260.094025,178.030136 259.675476,172.533905 
	C259.414673,169.109283 258.981140,165.674103 259.056793,162.253189 
	C259.169464,157.158981 259.663544,152.073212 259.997406,146.566208 
	C267.022980,146.105530 274.046478,146.062500 281.535095,146.081284 
	C282.000183,159.542603 282.000183,172.942108 282.000183,186.622482 
	C285.476013,186.890320 288.414215,187.116730 291.208862,187.648529 
	C284.734985,188.247009 278.404633,188.540131 272.074249,188.833252 
	C269.032806,188.892746 265.991333,188.952240 262.242371,188.971100 
	C261.357574,188.959351 261.180267,188.988251 261.002960,189.017136 
z"/>
<path fill="#304EE3" opacity="1.000000" stroke="none" 
	d="
M231.507202,348.090057 
	C230.585678,348.595032 229.206894,349.031799 228.140900,349.369476 
	C227.755325,353.669922 227.380096,357.854980 227.004074,362.450562 
	C224.247009,362.861084 221.490738,362.861084 217.941422,362.861084 
	C217.941422,358.044556 217.941422,353.519287 218.005768,348.535583 
	C222.396744,348.058746 226.723343,348.040283 231.507202,348.090057 
z"/>
<path fill="#304EE3" opacity="1.000000" stroke="none" 
	d="
M226.562988,316.176727 
	C227.004883,320.828918 227.002426,325.428833 226.554779,330.531860 
	C223.174576,330.957062 220.239548,330.879181 217.304535,330.801300 
	C217.259384,326.535583 217.214218,322.269867 217.317047,317.377747 
	C217.655045,316.515015 217.865891,316.299042 218.097534,316.103394 
	C220.771240,316.110413 223.444962,316.117432 226.562988,316.176727 
z"/>
<path fill="#829ADE" opacity="1.000000" stroke="none" 
	d="
M217.251236,331.110931 
	C220.239548,330.879181 223.174576,330.957062 226.555557,330.994263 
	C228.904907,331.372528 230.808304,331.791504 232.762161,332.570984 
	C227.899612,332.623962 222.986588,332.316437 217.622955,332.028656 
	C217.180893,331.839111 217.189407,331.629822 217.251236,331.110931 
z"/>
<path fill="#829ADE" opacity="1.000000" stroke="none" 
	d="
M217.819214,316.058319 
	C217.865891,316.299042 217.655045,316.515015 217.313538,316.919983 
	C217.100586,316.912292 217.039093,316.735901 216.977386,316.279266 
	C217.165070,316.003754 217.352982,316.008514 217.819214,316.058319 
z"/>
<path fill="#000000" opacity="1.000000" stroke="none" 
	d="
M186.000732,270.000397 
	C185.999451,269.815552 185.987885,269.620544 185.968353,268.801147 
	C186.064285,266.990204 185.884308,265.684235 186.324020,264.638885 
	C187.792313,261.148193 183.501999,256.786530 188.466583,253.893234 
	C192.593750,253.923950 196.267105,253.883347 200.330963,254.063629 
	C200.711899,259.209473 200.702377,264.134430 200.508789,269.027893 
	C200.324722,268.996429 199.978073,269.135315 199.537872,269.089172 
	C194.721207,269.351166 190.344742,269.659302 185.968277,269.967438 
	C185.968277,269.967438 185.990433,269.990204 186.000732,270.000397 
z"/>
<path fill="#000000" opacity="1.000000" stroke="none" 
	d="
M170.914886,253.267563 
	C170.873535,248.628891 170.929810,244.262772 171.011566,239.429382 
	C171.037033,238.962128 170.998108,239.001587 171.318726,238.978882 
	C172.091736,238.902939 172.544113,238.849686 173.448792,238.867981 
	C177.909943,238.641373 181.918823,238.343231 185.961090,238.505875 
	C186.055679,243.306931 186.116882,247.647202 185.959381,252.328079 
	C181.159561,253.191223 176.578461,253.713760 171.799835,254.170135 
	C171.602325,254.103989 171.185852,254.092560 171.185852,254.092560 
	C171.128082,253.908401 171.070312,253.724258 170.914886,253.267563 
z"/>
<path fill="#2F30E1" opacity="1.000000" stroke="none" 
	d="
M171.997360,254.236298 
	C176.578461,253.713760 181.159561,253.191223 186.246658,252.377045 
	C187.172699,252.664246 187.592728,253.243088 188.012772,253.821915 
	C183.501999,256.786530 187.792313,261.148193 186.324020,264.638885 
	C185.884308,265.684235 186.064285,266.990204 185.878174,268.522308 
	C185.796005,268.867828 185.352539,268.894897 184.815155,268.603088 
	C181.506088,268.206146 178.726593,267.923035 175.964828,268.044128 
	C172.993607,268.174438 171.801956,267.071533 171.966171,264.063690 
	C172.144531,260.797058 172.000702,257.512848 171.997360,254.236298 
z"/>
<path fill="#311FE1" opacity="1.000000" stroke="none" 
	d="
M171.799835,254.170135 
	C172.000702,257.512848 172.144531,260.797058 171.966171,264.063690 
	C171.801956,267.071533 172.993607,268.174438 175.964828,268.044128 
	C178.726593,267.923035 181.506088,268.206146 184.598114,268.555847 
	C180.474930,268.800385 176.031433,268.800385 171.037674,268.800385 
	C171.037674,264.150696 171.037674,259.574524 171.111755,254.545471 
	C171.185852,254.092560 171.602325,254.103989 171.799835,254.170135 
z"/>
<path fill="#D1D6F9" opacity="1.000000" stroke="none" 
	d="
M261.008514,189.484406 
	C261.180267,188.988251 261.357574,188.959351 261.790649,189.015259 
	C262.031342,204.404968 262.016266,219.709885 262.017334,235.477249 
	C262.033539,235.939697 261.652039,235.906784 261.461243,235.921997 
	C261.184967,220.608719 261.099518,205.280197 261.008514,189.484406 
z"/>
<path fill="#D1D6F9" opacity="1.000000" stroke="none" 
	d="
M272.534851,188.900497 
	C278.404633,188.540131 284.734985,188.247009 291.529419,187.892532 
	C295.428436,187.978592 298.863464,188.126038 302.580688,188.555817 
	C292.907135,188.881348 282.951294,188.924545 272.534851,188.900497 
z"/>
<path fill="#313EE3" opacity="1.000000" stroke="none" 
	d="
M188.466583,253.893234 
	C187.592728,253.243088 187.172699,252.664246 186.465378,252.036438 
	C186.116882,247.647202 186.055679,243.306931 186.272614,238.340454 
	C186.929916,235.297729 187.822800,232.822693 187.555969,230.479721 
	C187.234909,227.660522 185.927719,224.953629 185.047455,222.198105 
	C185.218277,222.130585 185.389084,222.063080 185.817764,221.894409 
	C186.458420,217.412460 186.841232,213.031693 187.282410,207.982712 
	C193.231033,207.982712 199.147537,207.982712 205.531174,208.022308 
	C205.364151,217.117813 202.673431,226.122971 205.374649,235.286896 
	C205.514771,235.762253 204.135513,236.685471 202.998749,237.710831 
	C202.533890,238.021500 202.079575,238.216599 201.719574,238.416412 
	C200.886551,243.691727 200.413513,248.767227 199.940475,253.842743 
	C196.267105,253.883347 192.593750,253.923950 188.466583,253.893234 
z"/>
<path fill="#000000" opacity="1.000000" stroke="none" 
	d="
M231.922867,161.662216 
	C232.013931,166.562164 231.865692,171.122391 231.357941,175.938538 
	C226.942291,176.558609 222.886154,176.922775 218.400391,177.325485 
	C218.400391,171.821671 218.400391,166.770081 218.400391,162.010590 
	C222.758667,161.784821 227.221115,161.553650 231.922867,161.662216 
z"/>
<path fill="#E7ECFF" opacity="1.000000" stroke="none" 
	d="
M202.079575,238.216599 
	C202.079575,238.216599 202.533890,238.021500 202.765015,237.933640 
	C211.688385,237.893799 220.380615,237.941818 229.536621,237.917572 
	C230.580109,238.022812 231.159790,238.200317 231.335892,238.683228 
	C221.304764,239.007629 211.677246,239.026611 202.083282,238.839447 
	C202.116852,238.633316 202.079575,238.216599 202.079575,238.216599 
z"/>
<path fill="#3046E2" opacity="1.000000" stroke="none" 
	d="
M225.992065,299.007324 
	C225.992065,299.007324 225.992828,299.391235 225.534454,299.637390 
	C222.486801,299.883545 219.897537,299.883545 216.841782,299.883545 
	C216.841782,305.165253 216.841782,310.064331 216.841782,314.963409 
	C212.183670,314.992981 207.525558,315.022522 202.402771,314.986938 
	C201.578476,310.075500 201.218872,305.229156 200.828049,299.962097 
	C204.539307,299.962097 207.484375,299.962219 210.429428,299.962036 
	C216.246460,299.961731 217.594025,298.324707 216.855164,292.568878 
	C216.623932,290.767517 216.914719,288.899109 217.102188,286.422424 
	C217.315765,285.614227 217.393738,285.444977 217.640106,285.603943 
	C217.868881,287.559387 217.964386,289.186279 217.983826,290.814056 
	C218.093887,300.031311 216.917480,298.904663 225.992065,299.007324 
z"/>
<path fill="#313EE3" opacity="1.000000" stroke="none" 
	d="
M185.988434,270.432312 
	C190.344742,269.659302 194.721207,269.351166 199.446548,269.451904 
	C194.700180,270.835480 194.518921,274.542755 195.021606,278.560974 
	C195.244034,280.338959 195.663315,282.092377 195.539490,283.903046 
	C192.051605,283.903534 189.017441,283.857910 185.983276,283.812286 
	C185.991714,279.507263 186.000153,275.202209 185.988434,270.432312 
z"/>
<path fill="#829ADE" opacity="1.000000" stroke="none" 
	d="
M185.653809,284.034180 
	C189.017441,283.857910 192.051605,283.903534 196.005554,283.953430 
	C202.281876,283.928497 207.638397,283.899261 213.393265,283.914734 
	C215.018295,284.398224 216.244995,284.837006 217.471695,285.275757 
	C217.393738,285.444977 217.315765,285.614227 217.142487,286.047333 
	C215.373795,285.882568 213.706375,285.112854 212.026016,285.083496 
	C204.139801,284.945557 196.249817,285.037964 188.361816,284.971222 
	C187.347382,284.962677 186.336731,284.505463 185.653809,284.034180 
z"/>
<path fill="#2F30E1" opacity="1.000000" stroke="none" 
	d="
M184.773178,222.146729 
	C185.927719,224.953629 187.234909,227.660522 187.555969,230.479721 
	C187.822800,232.822693 186.929916,235.297729 186.239227,237.879669 
	C181.918823,238.343231 177.909943,238.641373 173.390320,238.568390 
	C172.241623,237.805298 171.603683,237.413315 170.965729,237.021317 
	C170.965729,237.021317 170.994690,236.995880 170.991806,236.740158 
	C170.985062,236.302597 170.981186,236.120743 170.977325,235.938889 
	C171.010361,235.195084 171.043411,234.451263 171.274933,233.246796 
	C171.643936,232.465973 171.559540,232.210663 171.220245,232.020233 
	C171.174011,230.931595 171.127762,229.842972 171.373749,228.084717 
	C171.782898,226.023926 171.899826,224.632782 172.016754,223.241623 
	C175.356903,223.168076 178.697067,223.094528 182.695709,222.922455 
	C183.617447,222.680176 183.816727,222.474472 183.952042,222.206787 
	C184.134338,222.169632 184.316620,222.132492 184.773178,222.146729 
z"/>
<path fill="#311FE1" opacity="1.000000" stroke="none" 
	d="
M171.754486,223.164703 
	C171.899826,224.632782 171.782898,226.023926 171.445190,227.681091 
	C171.162323,226.560516 171.100250,225.173920 171.000000,223.371445 
	C171.138641,222.999634 171.315430,223.043701 171.754486,223.164703 
z"/>
<path fill="#311FE1" opacity="1.000000" stroke="none" 
	d="
M183.707336,222.191101 
	C183.816727,222.474472 183.617447,222.680176 183.150024,222.898651 
	C182.982346,222.619492 183.154617,222.353485 183.707336,222.191101 
z"/>
<path fill="#311FE1" opacity="1.000000" stroke="none" 
	d="
M171.004913,237.357239 
	C171.603683,237.413315 172.241623,237.805298 172.938049,238.496857 
	C172.544113,238.849686 172.091736,238.902939 171.299194,238.998566 
	C170.987396,238.591690 171.015747,238.142426 171.004913,237.357239 
z"/>
<path fill="#311FE1" opacity="1.000000" stroke="none" 
	d="
M171.163834,232.259247 
	C171.559540,232.210663 171.643936,232.465973 171.346237,232.881378 
	C171.219070,232.976593 171.107422,232.498276 171.163834,232.259247 
z"/>
<path fill="#311FE1" opacity="1.000000" stroke="none" 
	d="
M170.740021,236.019928 
	C170.981186,236.120743 170.985062,236.302597 170.984665,236.757355 
	C170.821182,236.720490 170.661957,236.410721 170.740021,236.019928 
z"/>
<path fill="#000000" opacity="1.000000" stroke="none" 
	d="
M231.985352,314.942444 
	C227.687988,314.917267 223.401474,314.932281 218.572876,314.504761 
	C218.030823,309.789459 218.030823,305.516693 218.030823,301.161560 
	C223.029694,301.161560 227.499939,301.161560 231.964737,301.615356 
	C231.944733,306.380676 231.930161,310.692169 231.915604,315.003693 
	C231.915604,315.003693 231.996185,314.982666 231.985352,314.942444 
z"/>
<path fill="#E7ECFF" opacity="1.000000" stroke="none" 
	d="
M231.970184,301.161560 
	C227.499939,301.161560 223.029694,301.161560 218.030823,301.161560 
	C218.030823,305.516693 218.030823,309.789459 218.122070,314.521118 
	C217.984467,314.997131 217.755615,315.014343 217.184280,314.997498 
	C216.841782,310.064331 216.841782,305.165253 216.841782,299.883545 
	C219.897537,299.883545 222.486801,299.883545 225.535461,299.829346 
	C227.698181,299.848419 229.401520,299.921692 231.530151,300.314819 
	C231.960358,300.810242 231.965271,300.985901 231.970184,301.161560 
z"/>
<path fill="#304EE3" opacity="1.000000" stroke="none" 
	d="
M217.640106,285.603943 
	C216.244995,284.837006 215.018295,284.398224 213.395416,283.493042 
	C213.316711,276.686249 213.532288,270.338623 213.981934,264.007568 
	C214.386597,258.309875 212.275085,255.517944 206.819031,254.931656 
	C206.208298,254.866013 205.635941,254.443283 205.506882,254.116821 
	C214.630981,253.997803 223.293961,253.948090 231.956955,253.898407 
	C230.300720,254.463303 228.644485,255.028214 226.951981,255.605484 
	C226.951981,265.313965 227.037033,275.221680 226.912949,285.126770 
	C226.858139,289.501434 226.379196,293.870789 226.042435,298.624939 
	C216.917480,298.904663 218.093887,300.031311 217.983826,290.814056 
	C217.964386,289.186279 217.868881,287.559387 217.640106,285.603943 
z"/>
<path fill="#000000" opacity="1.000000" stroke="none" 
	d="
M202.049713,239.045593 
	C211.677246,239.026611 221.304764,239.007629 231.387131,238.985565 
	C231.891479,243.349976 231.940979,247.717468 231.468048,252.542908 
	C221.306671,252.964035 211.667709,252.927216 202.013275,252.433441 
	C202.015121,247.666183 202.032410,243.355896 202.049713,239.045593 
z"/>
<path fill="#E7ECFF" opacity="1.000000" stroke="none" 
	d="
M202.028748,252.890396 
	C211.667709,252.927216 221.306671,252.964035 231.401886,253.004013 
	C231.858124,253.007172 231.944763,253.448608 231.950867,253.673492 
	C223.293961,253.948090 214.630981,253.997803 205.133392,254.044876 
	C203.541428,254.072830 202.784088,254.103394 202.009872,253.823029 
	C202.004929,253.304886 202.016830,253.097641 202.028748,252.890396 
z"/>
<path fill="#AEC6F1" opacity="1.000000" stroke="none" 
	d="
M231.964737,301.615356 
	C231.965271,300.985901 231.960358,300.810242 231.953278,300.371063 
	C232.214325,304.972626 232.477570,309.837738 232.328201,314.853271 
	C231.930161,310.692169 231.944733,306.380676 231.964737,301.615356 
z"/>
<path fill="#3046E2" opacity="1.000000" stroke="none" 
	d="
M202.026733,254.133972 
	C202.784088,254.103394 203.541428,254.072830 204.672272,254.114197 
	C205.635941,254.443283 206.208298,254.866013 206.819031,254.931656 
	C212.275085,255.517944 214.386597,258.309875 213.981934,264.007568 
	C213.532288,270.338623 213.316711,276.686249 212.997070,283.448364 
	C207.638397,283.899261 202.281876,283.928497 196.459290,283.907318 
	C195.663315,282.092377 195.244034,280.338959 195.021606,278.560974 
	C194.518921,274.542755 194.700180,270.835480 199.886749,269.498047 
	C199.978073,269.135315 200.324722,268.996429 200.940567,268.890930 
	C201.713181,263.901581 201.869965,259.017792 202.026733,254.133972 
z"/>
<path fill="#AEC6F1" opacity="1.000000" stroke="none" 
	d="
M202.009872,253.823044 
	C201.869965,259.017792 201.713181,263.901581 201.124634,268.922363 
	C200.702377,264.134430 200.711899,259.209473 200.330963,254.063629 
	C200.413513,248.767227 200.886551,243.691727 201.719574,238.416412 
	C202.079575,238.216599 202.116852,238.633316 202.083282,238.839447 
	C202.032410,243.355896 202.015121,247.666183 202.013275,252.433441 
	C202.016830,253.097641 202.004929,253.304886 202.009872,253.823044 
z"/>
</svg>